<svg id="visual" viewBox="0 0 900 450" width="900" height="450" xmlns="http://www.w3.org/2000/svg" xmlns:xlink="http://www.w3.org/1999/xlink" version="1.1"><rect x="0" y="0" width="900" height="450" fill="#0f172a"></rect><defs><linearGradient id="grad1_0" x1="50%" y1="0%" x2="100%" y2="100%"><stop offset="10%" stop-color="#0f172a" stop-opacity="1"></stop><stop offset="90%" stop-color="#0f172a" stop-opacity="1"></stop></linearGradient></defs><defs><linearGradient id="grad2_0" x1="0%" y1="0%" x2="50%" y2="100%"><stop offset="10%" stop-color="#0f172a" stop-opacity="1"></stop><stop offset="90%" stop-color="#0f172a" stop-opacity="1"></stop></linearGradient></defs><g transform="translate(900, 0)"><path d="M0 292.5C-8.9 259.9 -17.8 227.3 -30 228C-42.3 228.7 -58 262.8 -75.1 280.1C-92.2 297.5 -110.7 298.2 -111.9 270.2C-113.2 242.3 -97.1 185.7 -92 159.3C-86.9 133 -92.6 137 -118.1 153.9C-143.6 170.8 -188.9 200.8 -195.2 195.2C-201.5 189.5 -168.8 148.4 -181.7 139.4C-194.5 130.4 -252.9 153.6 -245.1 141.5C-237.2 129.4 -163.1 81.9 -162.6 67.4C-162.1 52.8 -235.2 71 -262.7 70.4C-290.3 69.8 -272.3 50.4 -269.7 35.5C-267 20.6 -279.8 10.3 -292.5 0L0 0Z" fill="#1f2937"></path></g><g transform="translate(0, 450)"><path d="M0 -292.5C6.3 -232.6 12.6 -172.7 21 -159.6C29.4 -146.6 40 -180.5 53.8 -200.9C67.7 -221.4 84.7 -228.4 87.6 -211.6C90.5 -194.7 79.3 -154 82 -142C84.7 -130.1 101.4 -146.9 124.2 -161.8C147 -176.8 176 -189.7 177.5 -177.5C178.9 -165.2 152.8 -127.8 141.2 -108.4C129.6 -88.9 132.6 -87.6 160.2 -92.5C187.9 -97.4 240.2 -108.7 245.8 -101.8C251.3 -94.9 209.9 -69.8 214.4 -57.5C219 -45.1 269.3 -45.6 290 -38.2C310.7 -30.7 301.6 -15.4 292.5 0L0 0Z" fill="#1f2937"></path></g></svg>