<svg id="visual" viewBox="0 0 900 450" width="900" height="450" xmlns="http://www.w3.org/2000/svg" xmlns:xlink="http://www.w3.org/1999/xlink" version="1.1"><rect x="0" y="0" width="900" height="450" fill="#1f2937"></rect><defs><linearGradient id="grad1_0" x1="50%" y1="0%" x2="100%" y2="100%"><stop offset="10%" stop-color="#1f2937" stop-opacity="1"></stop><stop offset="90%" stop-color="#1f2937" stop-opacity="1"></stop></linearGradient></defs><defs><linearGradient id="grad2_0" x1="0%" y1="0%" x2="50%" y2="100%"><stop offset="10%" stop-color="#1f2937" stop-opacity="1"></stop><stop offset="90%" stop-color="#1f2937" stop-opacity="1"></stop></linearGradient></defs><g transform="translate(900, 0)"><path d="M0 247.5C-11.9 239.3 -23.9 231.2 -34.9 220.3C-45.9 209.3 -55.9 195.6 -55.9 172.1C-56 148.6 -46 115.3 -64.5 126.5C-83 137.7 -129.9 193.5 -145.5 200.2C-161 206.9 -145.1 164.6 -145.7 145.7C-146.2 126.8 -163.3 131.4 -179.6 130.5C-195.9 129.6 -211.6 123.3 -219.2 111.7C-226.8 100.1 -226.5 83.2 -205.4 66.7C-184.4 50.3 -142.6 34.2 -146.2 23.2C-149.7 12.1 -198.6 6 -247.5 0L0 0Z" fill="#0f172a"></path></g><g transform="translate(0, 450)"><path d="M0 -247.5C8.5 -215.4 17.1 -183.2 28.6 -180.7C40.2 -178.3 54.8 -205.5 71.7 -220.6C88.6 -235.8 107.7 -239 112.4 -220.5C117 -202.1 107.2 -161.9 98.7 -135.9C90.3 -109.9 83.2 -98 106.8 -106.8C130.3 -115.6 184.5 -145.1 199 -144.6C213.5 -144 188.3 -113.4 191.6 -97.6C194.9 -81.8 226.7 -80.9 213 -69.2C199.3 -57.6 140.1 -35.2 138.3 -21.9C136.4 -8.6 192 -4.3 247.5 0L0 0Z" fill="#0f172a"></path></g></svg>